# File created by Blade
# Date/Time:  Wed Apr 08 17:24:36 2015
# Frame Rate: 120.000 fps
#------------------------------------------------------
:FULLY-SPECIFIED
:DEGREES
1528
root 6.554127 36.440504 -0.820064 301.680729 -84.739592 -281.849216
Spine -17.923747 3.058772 -5.304613
Head 6.635553 22.558155 -5.190458
LeftShoulder -7.029782 10.193036 27.537641
LeftArm 13.562359 -36.500565 -33.557465
LeftForeArm 19.270252 -0.000000 8.009043
LeftHand -12.421496 -0.000000 -12.796178
LeftHandThumb1 -26.253704 0.000000 33.147579
RightShoulder -23.932741 -42.153727 -13.134294
RightArm 49.049412 47.135333 53.725930
RightForeArm 8.488095 -0.000000 7.044395
RightHand -2.226685 -0.000000 5.551174
RightHandThumb1 -24.326973 -0.000000 -32.862282
LeftUpLeg -35.650066 12.994028 -1.009671
LeftLeg 39.426129 -0.000000 -0.000000
LeftFoot -10.319383 9.189109 -14.181969
LeftToeBase -8.400838 -0.000000 0.000000
RightUpLeg -22.380108 -5.183657 -8.158447
RightLeg 13.136969 -0.000000 -0.000000
RightFoot -15.228814 -9.151706 21.184792
RightToeBase 7.191084 -0.000000 -0.000000
1529
root 6.609652 36.449213 -0.815238 302.980563 -84.741188 -283.011647
Spine -18.160021 2.893926 -5.324942
Head 6.269296 22.491087 -5.082801
LeftShoulder -6.992945 10.123271 27.670420
LeftArm 13.340482 -36.509350 -33.363893
LeftForeArm 19.226711 -0.000000 7.738344
LeftHand -12.226888 -0.000000 -12.900371
LeftHandThumb1 -26.253704 0.000000 33.147579
RightShoulder -23.878775 -42.108410 -13.171457
RightArm 49.015333 47.198123 53.560742
RightForeArm 8.350663 -0.000000 7.052118
RightHand -2.074623 0.000000 5.720762
RightHandThumb1 -24.326973 -0.000000 -32.862282
LeftUpLeg -35.160034 12.964697 -0.926903
LeftLeg 38.721596 -0.000000 -0.000000
LeftFoot -10.005175 9.299733 -14.182175
LeftToeBase -7.899340 -0.000000 0.000000
RightUpLeg -22.622841 -5.243109 -8.112059
RightLeg 13.190470 -0.000000 -0.000000
RightFoot -15.118336 -9.175309 21.144736
RightToeBase 7.207855 -0.000000 -0.000000
1530
root 6.661181 36.455652 -0.806405 304.612748 -84.724689 -284.550267
Spine -18.331446 2.707964 -5.343897
Head 5.856252 22.373142 -4.979255
LeftShoulder -6.902490 9.999790 27.849532
LeftArm 13.027947 -36.660726 -33.214480
LeftForeArm 19.346699 0.000000 7.526598
LeftHand -12.071594 -0.000000 -13.079853
LeftHandThumb1 -26.253704 0.000000 33.147579
RightShoulder -23.928210 -42.152473 -13.063807
RightArm 48.933408 47.219351 53.207179
RightForeArm 8.454295 -0.000000 7.055751
RightHand -1.899978 0.000000 5.857225
RightHandThumb1 -24.326973 -0.000000 -32.862282
LeftUpLeg -34.588412 12.893592 -0.836599
LeftLeg 37.876180 -0.000000 -0.000000
LeftFoot -9.644391 9.350175 -14.273895
LeftToeBase -7.292433 -0.000000 0.000000
RightUpLeg -22.803142 -5.398638 -8.039595
RightLeg 13.244000 -0.000000 -0.000000
RightFoot -15.023023 -9.224229 21.021580
RightToeBase 7.213763 -0.000000 -0.000000
1531
root 6.714212 36.460106 -0.794494 306.726541 -84.699503 -286.572933
Spine -18.489143 2.499600 -5.328638
Head 5.428445 22.235203 -4.863092
LeftShoulder -6.863421 9.998097 27.924525
LeftArm 12.914556 -36.825967 -33.043454
LeftForeArm 19.366172 -0.000000 7.244351
LeftHand -12.081833 -0.000000 -13.254964
LeftHandThumb1 -26.253704 0.000000 33.147579
RightShoulder -23.884760 -42.031489 -13.130123
RightArm 48.799119 47.257992 52.998340
RightForeArm 8.334936 -0.000000 6.984955
RightHand -1.923647 -0.000000 5.908958
RightHandThumb1 -24.326973 -0.000000 -32.862282
LeftUpLeg -33.990511 12.757503 -0.734788
LeftLeg 36.895447 -0.000000 -0.000000
LeftFoot -9.232419 9.396851 -14.336228
LeftToeBase -6.767421 -0.000000 0.000000
RightUpLeg -23.010349 -5.540606 -7.966476
RightLeg 13.356502 -0.000000 -0.000000
RightFoot -14.963329 -9.306880 20.926239
RightToeBase 7.197156 -0.000000 -0.000000
1532
root 6.769798 36.463226 -0.782031 309.319870 -84.673289 -288.991480
Spine -18.742372 2.239041 -5.297546
Head 5.019721 22.080836 -4.703970
LeftShoulder -6.833991 9.935995 28.054624
LeftArm 12.763885 -36.993510 -32.915346
LeftForeArm 19.532852 0.000000 6.949422
LeftHand -11.874486 -0.000000 -13.379164
LeftHandThumb1 -26.253704 0.000000 33.147579
RightShoulder -23.824572 -41.982653 -13.147790
RightArm 48.511084 47.244679 52.563952
RightForeArm 8.469764 0.000000 6.910159
RightHand -1.872425 -0.000000 5.992120
RightHandThumb1 -24.326973 -0.000000 -32.862282
LeftUpLeg -33.448606 12.544728 -0.618644
LeftLeg 35.778590 -0.000000 -0.000000
LeftFoot -8.733948 9.409933 -14.428943
LeftToeBase -6.217112 -0.000000 0.000000
RightUpLeg -23.310670 -5.702798 -7.857575
RightLeg 13.490367 -0.000000 -0.000000
RightFoot -14.903105 -9.409607 20.831460
RightToeBase 7.164708 -0.000000 -0.000000
1533
root 6.826411 36.463463 -0.764831 311.750894 -84.649827 -291.261033
Spine -18.965602 2.013232 -5.264504
Head 4.590297 21.900521 -4.515044
LeftShoulder -6.810073 9.871063 28.176271
LeftArm 12.669578 -37.180314 -32.821306
LeftForeArm 19.876118 0.000000 6.691272
LeftHand -11.854854 -0.000000 -13.532901
LeftHandThumb1 -26.253704 0.000000 33.147579
RightShoulder -23.796023 -41.938229 -13.150087
RightArm 48.434956 47.384107 52.408009
RightForeArm 8.409934 -0.000000 6.753973
RightHand -1.800637 0.000000 6.068958
RightHandThumb1 -24.326973 -0.000000 -32.862282
LeftUpLeg -32.880967 12.353369 -0.512708
LeftLeg 34.587224 -0.000000 -0.000000
LeftFoot -8.137950 9.376023 -14.376035
LeftToeBase -5.759485 -0.000000 0.000000
RightUpLeg -23.621024 -5.800570 -7.771861
RightLeg 13.663836 -0.000000 -0.000000
RightFoot -14.858859 -9.543529 20.723660
RightToeBase 7.125397 -0.000000 -0.000000
1534
root 6.882818 36.461888 -0.746664 314.808552 -84.615526 -294.133794
Spine -19.216666 1.767835 -5.196912
Head 4.179312 21.647888 -4.276951
LeftShoulder -6.732135 9.770808 28.319740
LeftArm 12.524349 -37.335667 -32.763903
LeftForeArm 19.827484 0.000000 6.518069
LeftHand -12.119642 -0.000000 -13.259598
LeftHandThumb1 -26.253704 0.000000 33.147579
RightShoulder -23.820409 -41.976875 -13.084334
RightArm 48.443959 47.596085 52.308605
RightForeArm 8.385131 0.000000 6.560324
RightHand -1.912387 -0.000000 6.089726
RightHandThumb1 -24.326973 -0.000000 -32.862282
LeftUpLeg -32.324874 12.076612 -0.368452
LeftLeg 33.292193 -0.000000 -0.000000
LeftFoot -7.307524 9.286012 -14.375566
LeftToeBase -5.651365 -0.000000 0.000000
RightUpLeg -23.947902 -5.918075 -7.654633
RightLeg 13.831058 -0.000000 -0.000000
RightFoot -14.835016 -9.697381 20.653082
RightToeBase 7.121573 -0.000000 -0.000000
1535
root 6.941717 36.459780 -0.727821 318.279631 -84.589431 -297.346882
Spine -19.545514 1.519737 -5.097205
Head 3.761266 21.354422 -3.997121
LeftShoulder -6.674614 9.678089 28.478802
LeftArm 12.400797 -37.470230 -32.714892
LeftForeArm 20.028080 -0.000000 6.328115
LeftHand -12.218968 -0.000000 -13.167574
LeftHandThumb1 -26.253704 0.000000 33.147579
RightShoulder -23.860096 -41.961274 -13.016989
RightArm 48.381628 47.783246 52.162307
RightForeArm 8.397794 -0.000000 6.319960
RightHand -1.778152 -0.000000 6.135300
RightHandThumb1 -24.326973 -0.000000 -32.862282
LeftUpLeg -31.862377 11.798471 -0.214341
LeftLeg 31.952108 -0.000000 -0.000000
LeftFoot -6.142510 9.172800 -14.282352
LeftToeBase -5.896616 -0.000000 0.000000
RightUpLeg -24.355760 -5.960045 -7.516147
RightLeg 14.026864 -0.000000 -0.000000
RightFoot -14.825393 -9.943784 20.587622
RightToeBase 7.097765 -0.000000 -0.000000
1536
root 6.998781 36.453919 -0.706927 321.996144 -84.544775 -300.835020
Spine -19.835088 1.256960 -4.970345
Head 3.327957 21.028705 -3.695188
LeftShoulder -6.611267 9.614511 28.630264
LeftArm 12.287419 -37.645296 -32.685625
LeftForeArm 20.172589 0.000000 6.161954
LeftHand -12.280725 -0.000000 -13.027679
LeftHandThumb1 -26.253704 0.000000 33.147579
RightShoulder -23.895967 -41.989576 -12.954350
RightArm 48.419837 48.039491 52.170368
RightForeArm 8.388763 0.000000 6.069214
RightHand -1.736093 0.000000 6.084991
RightHandThumb1 -24.326973 -0.000000 -32.862282
LeftUpLeg -31.358499 11.502782 -0.033745
LeftLeg 30.545860 -0.000000 -0.000000
LeftFoot -4.761143 8.922693 -14.548212
LeftToeBase -6.218493 -0.000000 0.000000
RightUpLeg -24.733006 -6.006307 -7.366737
RightLeg 14.236360 -0.000000 -0.000000
RightFoot -14.834831 -10.188196 20.523946
RightToeBase 7.023157 -0.000000 -0.000000
1537
root 7.056076 36.444726 -0.684018 325.764097 -84.542055 -304.332313
Spine -20.175607 1.028505 -4.790247
Head 2.907292 20.710475 -3.348516
LeftShoulder -6.588504 9.597322 28.791874
LeftArm 12.240963 -37.726271 -32.697734
LeftForeArm 20.162951 -0.000000 5.950906
LeftHand -12.298516 0.000000 -12.779985
LeftHandThumb1 -26.253704 0.000000 33.147579
RightShoulder -23.945958 -42.021287 -12.897252
RightArm 48.602392 48.357881 52.318252
RightForeArm 8.278553 0.000000 5.742880
RightHand -1.894934 -0.000000 6.132219
RightHandThumb1 -24.326973 -0.000000 -32.862282
LeftUpLeg -30.892710 11.241352 0.164789
LeftLeg 29.166792 -0.000000 -0.000000
LeftFoot -4.203218 8.619172 -15.058276
LeftToeBase -6.920797 -0.000000 0.000000
RightUpLeg -25.158328 -6.029275 -7.171754
RightLeg 14.438377 -0.000000 -0.000000
RightFoot -14.851955 -10.405902 20.523688
RightToeBase 7.008233 -0.000000 -0.000000
1538
root 7.107461 36.430867 -0.654506 329.671934 -84.522498 -308.049430
Spine -20.423687 0.832882 -4.593029
Head 2.471535 20.316327 -2.961272
LeftShoulder -6.492185 9.531727 29.005958
LeftArm 12.080204 -37.747667 -32.723652
LeftForeArm 19.917700 -0.000000 5.780165
LeftHand -12.409984 -0.000000 -12.604606
LeftHandThumb1 -26.253704 0.000000 33.147579
RightShoulder -23.964212 -41.972064 -12.865025
RightArm 48.487528 48.564872 52.200230
RightForeArm 8.372774 -0.000000 5.421153
RightHand -1.751873 -0.000000 5.833610
RightHandThumb1 -24.326973 -0.000000 -32.862282
LeftUpLeg -30.375185 11.157899 0.267594
LeftLeg 27.831770 -0.000000 -0.000000
LeftFoot -5.273970 8.692223 -14.479330
LeftToeBase -5.601155 -0.000000 0.000000
RightUpLeg -25.481124 -6.095382 -6.971390
RightLeg 14.626177 -0.000000 -0.000000
RightFoot -14.889967 -10.534868 20.589396
RightToeBase 7.005910 -0.000000 -0.000000
1539
root 7.163041 36.417579 -0.625341 333.968157 -84.437506 -312.078447
Spine -20.753576 0.577408 -4.379970
Head 2.066055 19.908284 -2.539158
LeftShoulder -6.437385 9.575217 29.122683
LeftArm 12.077254 -37.852071 -32.707074
LeftForeArm 19.749044 -0.000000 5.530743
LeftHand -12.568429 -0.000000 -12.339913
LeftHandThumb1 -26.253704 0.000000 33.147579
RightShoulder -23.981669 -41.932547 -12.857489
RightArm 48.528798 48.819714 52.267120
RightForeArm 8.487615 -0.000000 5.026298
RightHand -1.906755 -0.000000 5.571389
RightHandThumb1 -24.326973 -0.000000 -32.862282
LeftUpLeg -30.016731 11.030619 0.388875
LeftLeg 26.514295 -0.000000 -0.000000
LeftFoot -6.005184 8.695996 -14.598931
LeftToeBase -5.098537 -0.000000 0.000000
RightUpLeg -25.886349 -6.217324 -6.759703
RightLeg 14.831985 -0.000000 -0.000000
RightFoot -14.928463 -10.666393 20.690852
RightToeBase 7.015862 -0.000000 -0.000000
